<?xml version="1.0" encoding="UTF-8"?>
<svg width="700pt" height="700pt" version="1.1" viewBox="0 0 700 700" xmlns="http://www.w3.org/2000/svg">
 <path d="m377.46 71.727c-7.5195-6.8242-17.309-10.605-27.465-10.605s-19.945 3.7812-27.465 10.605l-190.47 173.27c-8.1797 7.4336-12.992 17.863-13.348 28.91-0.35156 11.047 3.7852 21.766 11.473 29.707 7.6875 7.9414 18.262 12.426 29.316 12.434h7.5352c1.5469 0 3.0312 0.61328 4.125 1.707s1.707 2.5781 1.707 4.125v135.75c0.007812 10.828 4.3125 21.211 11.969 28.867s18.039 11.961 28.867 11.965h66.055c6.1875 0 12.125-2.457 16.5-6.832s6.8359-10.312 6.8359-16.5v-75.578c-0.28516-11.438 3.4648-22.617 10.586-31.574 7.125-8.957 17.168-15.125 28.379-17.426 13.625-2.3125 27.582 1.4922 38.145 10.402 10.566 8.9141 16.672 22.023 16.688 35.848v78.145-0.003906c0 6.1875 2.4609 12.125 6.8359 16.5s10.312 6.8359 16.5 6.8359h66.059-0.003907c10.828-0.007812 21.211-4.3125 28.867-11.969s11.961-18.039 11.969-28.867v-135.66c0-3.2227 2.6094-5.832 5.832-5.832h7.5117c11.031-0.023437 21.582-4.5039 29.254-12.43 7.6719-7.9219 11.816-18.613 11.48-29.637-0.33203-11.023-5.1094-21.445-13.246-28.891z"/>
</svg>
